# xmcd
#
# Track frame offsets:
#	150
#	19573
#	38016
#	54296
#	74703
#	94533
#	111072
#	128142
#	149362
#	167281
#	186692
#
# Disc length: 2741 seconds
#
# Revision: 1
# Processed by: cddbd v1.4PL0 Copyright (c) Steve Scherf et al.
# Submitted via: EasyCDDAExtractor 6.0.0.1
#
DISCID=910ab30b
DTITLE=Nueva Era - Make Way
DYEAR=2003
DGENRE=Bachata
TTITLE0=We belong together
TTITLE1=Nunca te olvides de mi
TTITLE2=I need a girl
TTITLE3=Volver atras
TTITLE4=Round n Round
TTITLE5=Te comparo
TTITLE6=Olvidame y pega la vuelta
TTITLE7=No supistes valorar
TTITLE8=I look into your eyes
TTITLE9=We belong together (spanglish)
TTITLE10=Eres diferente
EXTD=
EXTT0=
EXTT1=
EXTT2=
EXTT3=
EXTT4=
EXTT5=
EXTT6=
EXTT7=
EXTT8=
EXTT9=
EXTT10=
PLAYORDER=
